<?xml version="1.0" encoding="iso-8859-1"?>
<!-- Uploaded to: SVG Repo, www.svgrepo.com, Generator: SVG Repo Mixer Tools -->
<svg fill="#000000" height="800px" width="800px" version="1.1" id="Layer_1" xmlns="http://www.w3.org/2000/svg" xmlns:xlink="http://www.w3.org/1999/xlink" 
	 viewBox="0 0 217.772 217.772" xml:space="preserve">
<g>
	<g>
		<g>
			<path d="M155.801,84.344h-17.344V54.356c0-1.696-1.38-3.076-3.076-3.076H28.421c-0.932,0-1.74,0.652-1.936,1.564
				c-0.2,0.916,0.264,1.84,1.116,2.228c0.136,0.064,9.268,4.328,15.38,11.5v123.016c0,12.472,8.96,22.804,20.76,25.124v1.924
				c0,0.628,0.508,1.136,1.132,1.136h11.912c0.624,0,1.132-0.508,1.132-1.136v-1.348h22.508v1.348c0,0.628,0.508,1.136,1.132,1.136
				h11.912c0.624,0,1.132-0.508,1.132-1.136v-1.444c13.308-0.952,23.856-12.06,23.856-25.608v-26.556h17.344
				c20.252,0,35.532-18.552,35.532-43.156C191.333,100.288,175.393,84.344,155.801,84.344z M63.749,210.688h-0.004
				c-9.6-2.252-16.792-10.824-16.792-21.1l0.004-16.132c3.696,1.324,9.98,2.168,16.792,2.704V210.688z M46.993,170.668
				c2.092-0.904,7.912-1.9,16.752-2.612v5.224C54.901,172.564,49.081,171.568,46.993,170.668z M75.653,215.504h-9.644V64.656h9.644
				V215.504z M100.425,211.32H77.917v-34.44c5.236,0.16,9.908,0.208,12.8,0.208c2.312,0,5.764-0.024,9.708-0.112V211.32z
				 M100.425,164.36c-1.7-0.036-6.2,0.004-10.184,0.016v2.916c4.192-0.016,8.844-0.124,10.184-0.092v6.932
				c-3.072,0.072-6.284,0.116-9.708,0.116c-4.656,0-8.844,0.136-12.8,0v-6.936c1.316-0.044,5.552-0.088,9.62-0.116v-2.916
				c-3.912,0.024-8.032,0.128-9.62,0.176v-99.8h22.508V164.36z M112.337,215.504h-9.644V64.656h9.644V215.504z M50.361,61.82v2.836
				h13.384v100.52c-6.808,0.536-13.096,1.38-16.788,2.704l0.004-30.456h7.232v-2.268h-7.236v-3.684h7.228v-2.268h-7.228v-3.684
				h7.228v-2.28h-7.228v-4.084h13.196v-2.268H46.957v-6.148h7.172v-2.268h-7.172v-3.684h7.172v-2.268h-7.172v-3.684h7.172v-2.268
				h-7.172v-4.084h13.14v-2.268H46.961l0.004-17.304c0.86,2.044,1.408,4.212,1.408,6.528h3.968c0-11.36-9.58-19.688-16.408-24.184
				h7.048c0,0.008-0.004,0.012-0.004,0.02l91.508-0.02v6.564H50.361z M114.601,167.868c10.516,0.712,17.54,1.8,19.848,2.796
				c-2.308,1-9.332,2.088-19.848,2.8V167.868z M134.489,189.588c0,11.348-8.78,20.588-19.888,21.54v-34.752
				c7.948-0.512,15.636-1.392,19.888-2.916V189.588z M134.489,167.868c-4.252-1.52-11.94-2.4-19.888-2.912v-100.3h19.888V167.868z
				 M138.457,108.9c3.088-0.068,5.584-2.592,5.584-5.692v-6.5h10.084c12.772,0,23.168,10.392,23.168,23.168
				c0,16.98-10.396,30.792-23.168,30.792h-15.668L138.457,108.9L138.457,108.9z M155.801,160.2h-17.344v-6.692h15.668
				c14.584,0,26.004-14.772,26.004-33.628c0-14.336-11.664-26.004-26.004-26.004h-12.92v9.332c0,1.536-1.224,2.776-2.748,2.844
				V87.18h17.344c18.028,0,32.696,14.668,32.696,32.696C188.497,142.864,174.441,160.2,155.801,160.2z"/>
			<path d="M42.913,47.876h92.524c1.096,0,1.984-0.888,1.984-1.984c0-10.944-8.392-19.848-18.708-19.848h-28.12v-6.736
				c4.688-0.692,8.308-4.704,8.308-9.58C98.901,4.364,94.537,0,89.173,0c-5.364,0-9.728,4.364-9.728,9.728
				c0,4.876,3.62,8.888,8.308,9.58v6.736h-28.12c-10.316,0-18.708,8.904-18.708,19.848C40.925,46.988,41.813,47.876,42.913,47.876z
				 M83.417,9.728c0-3.176,2.584-5.756,5.756-5.756c3.176,0,5.756,2.584,5.756,5.756s-2.584,5.756-5.756,5.756
				C85.997,15.48,83.417,12.9,83.417,9.728z M59.633,30.012h59.08c7.504,0,13.716,6.072,14.624,13.896H45.009
				C45.917,36.084,52.129,30.012,59.633,30.012z"/>
		</g>
	</g>
</g>
</svg>