<?xml version="1.0" encoding="iso-8859-1"?>
<!-- Uploaded to: SVG Repo, www.svgrepo.com, Generator: SVG Repo Mixer Tools -->
<svg fill="#000000" height="800px" width="800px" version="1.1" id="Layer_1" xmlns="http://www.w3.org/2000/svg" xmlns:xlink="http://www.w3.org/1999/xlink" 
	 viewBox="0 0 221.395 221.395" xml:space="preserve">
<g>
	<g>
		<path d="M208.879,68.687l-24.688-27.228c-0.432-0.476-1.08-0.728-1.708-0.64l-16.052,1.944l0.056-0.328
			c0.096-0.576-0.064-1.168-0.44-1.612c-0.376-0.448-0.928-0.704-1.516-0.704h-2.796l-38.292-12.832l3.612-17.044
			c0.188-0.88-0.244-1.776-1.044-2.18l-15.48-7.848c-0.552-0.28-1.204-0.288-1.76-0.016L93.463,7.615
			c-0.82,0.396-1.264,1.3-1.08,2.192l3.42,16.356L52.951,40.227c-0.044,0.016-0.076,0.044-0.116,0.064
			c-0.088,0.036-0.164,0.084-0.244,0.132c-0.156,0.092-0.296,0.192-0.42,0.32c-0.036,0.036-0.084,0.052-0.12,0.092
			c-0.028,0.032-0.032,0.076-0.06,0.112c-0.116,0.156-0.2,0.32-0.264,0.504c-0.024,0.068-0.06,0.128-0.08,0.2
			c-0.064,0.252-0.088,0.512-0.044,0.78c0,0.004,0.004,0.008,0.004,0.012v0.004l0.16,0.956h-1.736c-0.18,0-0.36,0.024-0.532,0.072
			l-21.236,5.888c-0.22,0.06-0.424,0.16-0.612,0.292L12.843,60.123c-0.708,0.5-1.008,1.4-0.748,2.224
			c0.26,0.824,1.028,1.384,1.892,1.384h16.968l32.312,47.9l1.004,5.96c0.16,0.956,0.988,1.656,1.956,1.656h2.396v20.328h-2.392
			c-0.972,0-1.8,0.704-1.956,1.668l-12.66,77.848c-0.092,0.576,0.072,1.16,0.444,1.604c0.38,0.444,0.928,0.7,1.512,0.7h112.124
			c0.592,0,1.156-0.264,1.532-0.724c0.38-0.456,0.532-1.06,0.416-1.644l-15.2-77.848c-0.184-0.932-1-1.604-1.948-1.604h-3.012
			v-20.328h4.256c0.968,0,1.792-0.696,1.956-1.652l7.928-46.58c4.828-2.14,15.708-6.564,20.584-6.768
			c3.416-0.096,4.544,2.296,5.284,6.564c0.084,0.5,0.168,0.888,0.212,0.864c-0.156,0.772-2.024,3.26-3.388,5.08
			c-2.736,3.652-5.836,7.792-6.804,11.512c-1.268,4.896-0.008,15.004,0.672,19.584h-9.508c-0.644,0-1.248,0.312-1.62,0.836
			l-6.1,8.62c-0.576,0.812-0.456,1.92,0.268,2.596l7.176,6.688c0.368,0.34,0.848,0.532,1.352,0.532h18.288
			c0.628,0,1.22-0.3,1.592-0.804l5.384-7.272c0.14-0.188,0.248-0.4,0.312-0.624l13.984-47.832
			C209.507,69.915,209.343,69.199,208.879,68.687z M108.587,4.691v6.04h2.264V4.819l12.004,6.088l-3.092,14.592h-20.04l-3.14-14.996
			L108.587,4.691z M98.423,29.471h19.048l31.776,10.648H65.979L98.423,29.471z M76.199,119.227h4.74l6.904,8.32l1.744-1.448
			l-5.7-6.868h4.644l6.872,7.66l1.688-1.516l-5.512-6.144h4.492l5.844,6.652l1.704-1.496l-4.528-5.156h44.432v20.328H72.595v-0.004
			v-20.328h0.648l7.392,8.86l1.744-1.452L76.199,119.227z M80.251,115.259L67.295,44.087h39.096l1.02,71.172H80.251z
			 M109.675,115.259l-1.02-71.172h40.124l-13.256,71.172H109.675z M33.655,60.619c-0.368-0.548-0.984-0.876-1.644-0.876H20.235
			l9.424-6.664l20.64-5.724h1.604l9.668,54.648L33.655,60.619z M67.911,115.259L55.919,44.087h9.068l12.956,71.172h-7.332H67.911z
			 M55.903,217.403l12.016-73.88h2.692l9.016,0.024l-13.724,73.672L55.903,217.403z M68.168,217.399l13.759-73.848l25.5,0.068
			l1.016,73.78H68.168z M110.707,217.399v0.004l-1.016-73.776l26.82,0.072l13.42,73.7H110.707z M148.863,143.523l14.42,73.88
			l-11.08-0.18l-13.42-73.7h6.712H148.863z M150.067,115.259h-4.568h-7.672l13.256-71.172h10.332h0.764L150.067,115.259z
			 M191.623,116.955l-4.58,6.184h-16.508l-5.336-4.972l4.508-6.364h10.804c0.584,0,1.14-0.26,1.52-0.708
			c0.376-0.448,0.536-1.04,0.432-1.616c-0.708-4.084-2.288-15.672-1.104-20.228c0.768-2.964,3.748-6.94,6.14-10.132
			c3.156-4.216,4.536-6.16,4.088-8.028c-0.064-0.256-0.116-0.592-0.184-0.976c-0.48-2.78-1.892-10.06-9.36-9.852
			c-5.092,0.216-14.544,3.92-19.612,6.06l3.372-19.484l16.136-1.952l23.252,25.644L191.623,116.955z"/>
	</g>
</g>
</svg>